<svg width="256" height="256" viewBox="0 0 256 256" xmlns="http://www.w3.org/2000/svg" role="img" aria-label="Casowa Highlight icon idea highlight stripes">
  <defs>
    <linearGradient id="bg" x1="20" y1="18" x2="236" y2="238" gradientUnits="userSpaceOnUse">
      <stop offset="0" stop-color="#1D2D3B"/>
      <stop offset="1" stop-color="#0B1218"/>
    </linearGradient>
    <linearGradient id="paper" x1="44" y1="42" x2="212" y2="214" gradientUnits="userSpaceOnUse">
      <stop offset="0" stop-color="#EDF5FB"/>
      <stop offset="1" stop-color="#D8E7F5"/>
    </linearGradient>
  </defs>
  <rect x="16" y="16" width="224" height="224" rx="48" fill="url(#bg)"/>
  <rect x="44" y="42" width="168" height="172" rx="28" fill="url(#paper)" stroke="#8FB2D0" stroke-width="6"/>
  <path d="M60 84h24" stroke="#27405A" stroke-width="8" stroke-linecap="round"/>
  <rect x="92" y="74" width="34" height="20" rx="10" fill="#FFE066"/>
  <path d="M100 84h18" stroke="#27405A" stroke-width="8" stroke-linecap="round"/>
  <path d="M136 84h48" stroke="#27405A" stroke-width="8" stroke-linecap="round"/>
  <path d="M60 120h84" stroke="#27405A" stroke-width="8" stroke-linecap="round"/>
  <rect x="150" y="110" width="34" height="20" rx="10" fill="#7EE787"/>
  <path d="M158 120h18" stroke="#27405A" stroke-width="8" stroke-linecap="round"/>
  <path d="M60 156h22" stroke="#27405A" stroke-width="8" stroke-linecap="round"/>
  <rect x="90" y="146" width="34" height="20" rx="10" fill="#7CC7FF"/>
  <path d="M98 156h18" stroke="#27405A" stroke-width="8" stroke-linecap="round"/>
  <path d="M134 156h50" stroke="#27405A" stroke-width="8" stroke-linecap="round"/>
  <rect x="60" y="182" width="34" height="20" rx="10" fill="#FFE066"/>
  <path d="M68 192h18" stroke="#27405A" stroke-width="8" stroke-linecap="round"/>
  <path d="M104 192h76" stroke="#27405A" stroke-width="8" stroke-linecap="round"/>
  <circle cx="188" cy="182" r="18" fill="none" stroke="#27405A" stroke-width="10"/>
  <path d="M201 195l14 14" stroke="#27405A" stroke-width="10" stroke-linecap="round"/>
</svg>
