<svg width="256" height="256" viewBox="8 8 240 240" xmlns="http://www.w3.org/2000/svg" role="img" aria-label="Casowa Highlight icon idea highlight stripes">
  <defs>
    <linearGradient id="bg" x1="12" y1="10" x2="244" y2="246" gradientUnits="userSpaceOnUse">
      <stop offset="0" stop-color="#1D2D3B"/>
      <stop offset="1" stop-color="#0B1218"/>
    </linearGradient>
    <linearGradient id="paper" x1="28" y1="26" x2="228" y2="230" gradientUnits="userSpaceOnUse">
      <stop offset="0" stop-color="#EDF5FB"/>
      <stop offset="1" stop-color="#D8E7F5"/>
    </linearGradient>
  </defs>
  <rect x="8" y="8" width="240" height="240" rx="44" fill="url(#bg)"/>
  <rect x="28" y="26" width="200" height="204" rx="24" fill="url(#paper)" stroke="#8FB2D0" stroke-width="6"/>
  <path d="M42 74h28" stroke="#27405A" stroke-width="8" stroke-linecap="round"/>
  <rect x="76" y="64" width="40" height="20" rx="10" fill="#FFE066"/>
  <path d="M84 74h24" stroke="#27405A" stroke-width="8" stroke-linecap="round"/>
  <path d="M124 74h62" stroke="#27405A" stroke-width="8" stroke-linecap="round"/>
  <path d="M42 112h98" stroke="#27405A" stroke-width="8" stroke-linecap="round"/>
  <rect x="148" y="102" width="40" height="20" rx="10" fill="#7EE787"/>
  <path d="M156 112h24" stroke="#27405A" stroke-width="8" stroke-linecap="round"/>
  <path d="M42 150h26" stroke="#27405A" stroke-width="8" stroke-linecap="round"/>
  <rect x="76" y="140" width="40" height="20" rx="10" fill="#7CC7FF"/>
  <path d="M84 150h24" stroke="#27405A" stroke-width="8" stroke-linecap="round"/>
  <path d="M122 150h64" stroke="#27405A" stroke-width="8" stroke-linecap="round"/>
  <rect x="42" y="178" width="40" height="20" rx="10" fill="#FFE066"/>
  <path d="M50 188h24" stroke="#27405A" stroke-width="8" stroke-linecap="round"/>
  <path d="M88 188h82" stroke="#27405A" stroke-width="8" stroke-linecap="round"/>
  <circle cx="192" cy="184" r="20" fill="none" stroke="#27405A" stroke-width="10"/>
  <path d="M206 198l16 16" stroke="#27405A" stroke-width="10" stroke-linecap="round"/>
</svg>
