<svg width="256" height="256" viewBox="8 8 240 240" xmlns="http://www.w3.org/2000/svg" role="img" aria-label="Casowa Highlight icon idea highlight stripes">
  <defs>
    <linearGradient id="bg" x1="12" y1="10" x2="244" y2="246" gradientUnits="userSpaceOnUse">
      <stop offset="0" stop-color="#1D2D3B"/>
      <stop offset="1" stop-color="#0B1218"/>
    </linearGradient>
    <linearGradient id="paper" x1="28" y1="26" x2="228" y2="230" gradientUnits="userSpaceOnUse">
      <stop offset="0" stop-color="#EDF5FB"/>
      <stop offset="1" stop-color="#D8E7F5"/>
    </linearGradient>
  </defs>
  <rect x="12" y="12" width="232" height="232" rx="44" fill="url(#paper)" stroke="#8FB2D0" stroke-width="6"/>

  <rect x="86" y="28" width="60" height="44" rx="10" fill="#FFB86B"/>
  <path d="M54 50h18" stroke="#4E6A84" stroke-width="28" stroke-linecap="round"/>
  <path d="M96 50h40" stroke="#4E6A84" stroke-width="8" stroke-linecap="round"/>
  <path d="M160 50h34" stroke="#4E6A84" stroke-width="28" stroke-linecap="round"/>

  <rect x="128" y="80" width="80" height="44" rx="10" fill="#7EE787"/>
  <path d="M54 102h62" stroke="#4E6A84" stroke-width="24" stroke-linecap="round"/>
  <path d="M138 102h60" stroke="#4E6A84" stroke-width="8" stroke-linecap="round"/>

  <rect x="86" y="132" width="70" height="44" rx="10" fill="#7CC7FF"/>
  <path d="M54 154h20" stroke="#4E6A84" stroke-width="24" stroke-linecap="round"/>
  <path d="M96 154h50" stroke="#4E6A84" stroke-width="8" stroke-linecap="round"/>
  <path d="M168 154h30" stroke="#4E6A84" stroke-width="24" stroke-linecap="round"/>

  <rect x="44" y="184" width="60" height="44" rx="10" fill="#FFB86B"/>
  <path d="M54 206h40" stroke="#4E6A84" stroke-width="8" stroke-linecap="round"/>
  <path d="M116 206h82" stroke="#4E6A84" stroke-width="24" stroke-linecap="round"/>
</svg>
