<svg width="256" height="256" viewBox="0 0 256 256" xmlns="http://www.w3.org/2000/svg" role="img" aria-label="Casowa Highlight icon idea highlight panel">
  <defs>
    <linearGradient id="bg3" x1="18" y1="20" x2="236" y2="236" gradientUnits="userSpaceOnUse">
      <stop offset="0" stop-color="#1D3042"/>
      <stop offset="1" stop-color="#0B1218"/>
    </linearGradient>
    <linearGradient id="panel" x1="38" y1="42" x2="218" y2="212" gradientUnits="userSpaceOnUse">
      <stop offset="0" stop-color="#EEF5FB"/>
      <stop offset="1" stop-color="#DCE8F5"/>
    </linearGradient>
  </defs>
  <rect x="16" y="16" width="224" height="224" rx="48" fill="url(#bg3)"/>
  <rect x="38" y="42" width="180" height="172" rx="28" fill="url(#panel)" stroke="#8EAFCD" stroke-width="6"/>
  <rect x="54" y="62" width="148" height="18" rx="9" fill="#C7DCEF"/>
  <rect x="56" y="98" width="74" height="28" rx="14" fill="#FFE066"/>
  <rect x="138" y="98" width="54" height="28" rx="14" fill="#7EE787"/>
  <rect x="56" y="138" width="62" height="28" rx="14" fill="#7CC7FF"/>
  <rect x="126" y="138" width="66" height="28" rx="14" fill="#FF8CC6"/>
  <path d="M78 112h30" stroke="#29415A" stroke-width="8" stroke-linecap="round"/>
  <path d="M152 112h26" stroke="#29415A" stroke-width="8" stroke-linecap="round"/>
  <path d="M72 152h30" stroke="#29415A" stroke-width="8" stroke-linecap="round"/>
  <path d="M142 152h34" stroke="#29415A" stroke-width="8" stroke-linecap="round"/>
  <path d="M72 186h72" stroke="#29415A" stroke-width="10" stroke-linecap="round"/>
  <path d="M182 180v20" stroke="#29415A" stroke-width="10" stroke-linecap="round"/>
  <path d="M172 190h20" stroke="#29415A" stroke-width="10" stroke-linecap="round"/>
</svg>
